<svg width="170.000000" height="56.000000" viewBox="0 0 170 56" fill="none" xmlns="http://www.w3.org/2000/svg" xmlns:xlink="http://www.w3.org/1999/xlink">
	<desc>
			Created with Pixso.
	</desc>
	<defs/>
	<rect id="Rectangle 4" rx="28.000000" width="170.000000" height="56.000000" fill="#360490" fill-opacity="1.000000"/>
	<path id="Score" d="M42.8785 24.2773L44.9928 24.2773C44.9293 21.9482 42.8737 20.2539 39.9147 20.2539C36.9996 20.2539 34.7584 21.9238 34.7584 24.4336C34.7584 26.4551 36.2086 27.6416 38.5475 28.2764L40.2662 28.7451C41.819 29.1553 43.0201 29.668 43.0201 30.957C43.0201 32.3779 41.6627 33.3154 39.7975 33.3154C38.108 33.3154 36.7018 32.5635 36.57 30.9814L34.3678 30.9814C34.5143 33.6133 36.5504 35.2393 39.8121 35.2393C43.2252 35.2393 45.193 33.4424 45.193 30.9814C45.193 28.3594 42.859 27.3438 41.0084 26.8896L39.5924 26.5186C38.4547 26.2305 36.941 25.6982 36.9459 24.3018C36.9459 23.0664 38.0787 22.1533 39.8659 22.1533C41.5358 22.1533 42.7223 22.9346 42.8785 24.2773ZM52.2371 35.2197C54.8153 35.2197 56.4852 33.6719 56.7195 31.5479L54.6541 31.5479C54.3856 32.7295 53.4676 33.4229 52.2518 33.4229C50.4549 33.4229 49.2977 31.9238 49.2977 29.5459C49.2977 27.207 50.4793 25.7373 52.2518 25.7373C53.6043 25.7373 54.4246 26.5918 54.6541 27.6123L56.7195 27.6123C56.4949 25.4102 54.6981 23.9502 52.2176 23.9502C49.1414 23.9502 47.1541 26.2646 47.1541 29.5947C47.1541 32.8857 49.0731 35.2197 52.2371 35.2197ZM63.5937 35.2197C66.6698 35.2197 68.6815 32.9688 68.6815 29.5947C68.6815 26.2012 66.6698 23.9502 63.5937 23.9502C60.5224 23.9502 58.5107 26.2012 58.5107 29.5947C58.5107 32.9688 60.5224 35.2197 63.5937 35.2197ZM63.6034 33.4375C61.5917 33.4375 60.6542 31.6846 60.6542 29.5898C60.6542 27.5 61.5917 25.7227 63.6034 25.7227C65.6005 25.7227 66.538 27.5 66.538 29.5898C66.538 31.6846 65.6005 33.4375 63.6034 33.4375ZM71.0444 35L73.1684 35L73.1684 28.3398C73.1684 26.9092 74.2719 25.8789 75.7758 25.8789C76.2153 25.8789 76.7133 25.957 76.8842 26.0107L76.8842 23.9795C76.6694 23.9502 76.2543 23.9258 75.9809 23.9258C74.7016 23.9258 73.6079 24.6533 73.2124 25.8252L73.1001 25.8252L73.1001 24.0918L71.0444 24.0918L71.0444 35ZM83.0335 35.2197C85.4163 35.2197 87.096 34.0479 87.5794 32.2705L85.5725 31.9092C85.1868 32.9395 84.2639 33.4668 83.0579 33.4668C81.2366 33.4668 80.0159 32.2852 79.9573 30.1855L87.7161 30.1855L87.7161 29.4336C87.7161 25.4883 85.3577 23.9502 82.887 23.9502C79.845 23.9502 77.843 26.2646 77.843 29.6143C77.843 33.0029 79.8157 35.2197 83.0335 35.2197ZM79.9671 28.5938C80.0501 27.0459 81.1731 25.7031 82.9016 25.7031C84.5471 25.7031 85.6262 26.9238 85.636 28.5938L79.9671 28.5938Z" fill="#FFFFFF" fill-opacity="1.000000" fill-rule="evenodd"/>
	<path id="monetization_on" d="M106.632 34.9945L108.485 34.9945L108.485 33.6714C109.367 33.5126 110.125 33.1686 110.76 32.6393C111.396 32.1101 111.713 31.325 111.713 30.2842C111.713 29.5432 111.501 28.864 111.078 28.2466C110.655 27.6291 109.808 27.091 108.538 26.6324C107.479 26.2795 106.747 25.9708 106.341 25.7062C105.936 25.4415 105.733 25.0799 105.733 24.6212C105.733 24.1625 105.896 23.8009 106.222 23.5362C106.549 23.2716 107.021 23.1393 107.638 23.1393C108.202 23.1393 108.644 23.276 108.961 23.5495C109.279 23.8229 109.508 24.1625 109.649 24.5683L111.343 23.8802C111.149 23.2628 110.791 22.7247 110.271 22.2661C109.75 21.8073 109.173 21.5515 108.538 21.4986L108.538 20.1755L106.685 20.1755L106.685 21.4986C105.803 21.6927 105.115 22.0808 104.621 22.663C104.127 23.2451 103.88 23.8979 103.88 24.6212C103.88 25.4503 104.123 26.1207 104.608 26.6324C105.093 27.144 105.856 27.585 106.897 27.9555C108.008 28.3612 108.78 28.7229 109.212 29.0404C109.645 29.358 109.861 29.7726 109.861 30.2842C109.861 30.8664 109.654 31.2942 109.239 31.5676C108.824 31.8411 108.326 31.9778 107.744 31.9778C107.162 31.9778 106.646 31.7969 106.196 31.4353C105.746 31.0736 105.415 30.5312 105.203 29.8079L103.457 30.4959C103.704 31.3427 104.088 32.0263 104.608 32.5467C105.128 33.0671 105.803 33.4244 106.632 33.6184L106.632 34.9945ZM107.585 38.17C106.121 38.17 104.745 37.8922 103.457 37.3364C102.169 36.7807 101.049 36.0266 100.096 35.0739C99.1436 34.1212 98.3892 33.001 97.8335 31.7132C97.2778 30.4253 97 29.0493 97 27.585C97 26.1207 97.2778 24.7447 97.8335 23.4568C98.3892 22.169 99.1436 21.0488 100.096 20.0961C101.049 19.1435 102.169 18.3893 103.457 17.8336C104.745 17.2779 106.121 17 107.585 17C109.049 17 110.425 17.2779 111.713 17.8336C113.001 18.3893 114.121 19.1435 115.074 20.0961C116.027 21.0488 116.781 22.169 117.336 23.4568C117.892 24.7447 118.17 26.1207 118.17 27.585C118.17 29.0493 117.892 30.4253 117.336 31.7132C116.781 33.001 116.027 34.1212 115.074 35.0739C114.121 36.0266 113.001 36.7807 111.713 37.3364C110.425 37.8922 109.049 38.17 107.585 38.17Z" fill="#FFFFFF" fill-opacity="1.000000" fill-rule="nonzero"/>
	<path id="1" d="M133.362 20.4541L131.224 20.4541L127.596 22.8271L127.596 24.9268L131.072 22.6562L131.16 22.6562L131.16 35L133.362 35L133.362 20.4541Z" fill="#FFFFFF" fill-opacity="1.000000" fill-rule="evenodd"/>
</svg>
